<svg width="16" height="16" viewBox="0 0 16 16" fill="none" xmlns="http://www.w3.org/2000/svg">
<path d="M11.1667 2.37331V1.33331C11.1667 1.05998 10.94 0.833313 10.6667 0.833313C10.3933 0.833313 10.1667 1.05998 10.1667 1.33331V2.33331H5.83332V1.33331C5.83332 1.05998 5.60666 0.833313 5.33332 0.833313C5.05999 0.833313 4.83332 1.05998 4.83332 1.33331V2.37331C3.03332 2.53998 2.15999 3.61331 2.02666 5.20664C2.01332 5.39998 2.17332 5.55998 2.35999 5.55998H13.64C13.8333 5.55998 13.9933 5.39331 13.9733 5.20664C13.84 3.61331 12.9667 2.53998 11.1667 2.37331Z" fill="#026DE1"/>
<path opacity="0.4" d="M13.3333 6.56C13.7 6.56 14 6.86 14 7.22666V11.3333C14 13.3333 13 14.6667 10.6667 14.6667H5.33333C3 14.6667 2 13.3333 2 11.3333V7.22666C2 6.86 2.3 6.56 2.66667 6.56H13.3333Z" fill="#026DE1"/>
<path d="M5.66667 10C5.49333 10 5.32 9.92668 5.19333 9.80668C5.07333 9.68001 5 9.50668 5 9.33335C5 9.16002 5.07333 8.98669 5.19333 8.86002C5.38 8.67336 5.67333 8.61334 5.92 8.72001C6.00667 8.75334 6.08 8.80002 6.14 8.86002C6.26 8.98669 6.33333 9.16002 6.33333 9.33335C6.33333 9.50668 6.26 9.68001 6.14 9.80668C6.01333 9.92668 5.84 10 5.66667 10Z" fill="#026DE1"/>
<path d="M8.00004 10C7.82671 10 7.65337 9.92668 7.52671 9.80668C7.40671 9.68001 7.33337 9.50668 7.33337 9.33335C7.33337 9.16002 7.40671 8.98669 7.52671 8.86002C7.58671 8.80002 7.66004 8.75334 7.74671 8.72001C7.99337 8.61334 8.28671 8.67336 8.47337 8.86002C8.59337 8.98669 8.66671 9.16002 8.66671 9.33335C8.66671 9.50668 8.59337 9.68001 8.47337 9.80668C8.44004 9.83334 8.40671 9.86001 8.37337 9.88667C8.33337 9.91334 8.29337 9.93336 8.25337 9.94669C8.21337 9.96669 8.17337 9.98002 8.13337 9.98669C8.08671 9.99336 8.04671 10 8.00004 10Z" fill="#026DE1"/>
<path d="M10.3333 10C10.16 10 9.98663 9.92669 9.85996 9.80669C9.73996 9.68002 9.66663 9.50669 9.66663 9.33336C9.66663 9.16003 9.73996 8.9867 9.85996 8.86003C9.92663 8.80003 9.99329 8.75335 10.08 8.72002C10.2 8.66669 10.3333 8.65335 10.4666 8.68002C10.5066 8.68669 10.5466 8.70002 10.5866 8.72002C10.6266 8.73335 10.6666 8.75337 10.7066 8.78004C10.74 8.8067 10.7733 8.83337 10.8066 8.86003C10.9266 8.9867 11 9.16003 11 9.33336C11 9.50669 10.9266 9.68002 10.8066 9.80669C10.7733 9.83336 10.74 9.86002 10.7066 9.88669C10.6666 9.91335 10.6266 9.93337 10.5866 9.9467C10.5466 9.9667 10.5066 9.98004 10.4666 9.9867C10.42 9.99337 10.3733 10 10.3333 10Z" fill="#026DE1"/>
<path d="M5.66667 12.3333C5.58 12.3333 5.49333 12.3134 5.41333 12.28C5.32667 12.2467 5.26 12.2 5.19333 12.14C5.07333 12.0133 5 11.84 5 11.6667C5 11.4933 5.07333 11.32 5.19333 11.1933C5.26 11.1333 5.32667 11.0867 5.41333 11.0533C5.53333 11 5.66667 10.9867 5.8 11.0133C5.84 11.02 5.88 11.0333 5.92 11.0533C5.96 11.0667 6 11.0867 6.04 11.1134C6.07333 11.14 6.10667 11.1667 6.14 11.1933C6.26 11.32 6.33333 11.4933 6.33333 11.6667C6.33333 11.84 6.26 12.0133 6.14 12.14C6.10667 12.1667 6.07333 12.2 6.04 12.22C6 12.2467 5.96 12.2667 5.92 12.28C5.88 12.3 5.84 12.3133 5.8 12.32C5.75333 12.3267 5.71333 12.3333 5.66667 12.3333Z" fill="#026DE1"/>
<path d="M8.00004 12.3334C7.82671 12.3334 7.65337 12.26 7.52671 12.14C7.40671 12.0134 7.33337 11.84 7.33337 11.6667C7.33337 11.4934 7.40671 11.32 7.52671 11.1934C7.77337 10.9467 8.22671 10.9467 8.47337 11.1934C8.59337 11.32 8.66671 11.4934 8.66671 11.6667C8.66671 11.84 8.59337 12.0134 8.47337 12.14C8.34671 12.26 8.17337 12.3334 8.00004 12.3334Z" fill="#026DE1"/>
<path d="M10.3333 12.3334C10.16 12.3334 9.98663 12.26 9.85996 12.14C9.73996 12.0134 9.66663 11.84 9.66663 11.6667C9.66663 11.4934 9.73996 11.32 9.85996 11.1934C10.1066 10.9467 10.56 10.9467 10.8066 11.1934C10.9266 11.32 11 11.4934 11 11.6667C11 11.84 10.9266 12.0134 10.8066 12.14C10.68 12.26 10.5066 12.3334 10.3333 12.3334Z" fill="#026DE1"/>
</svg>
