<svg width="16" height="16" viewBox="0 0 16 16" fill="none" xmlns="http://www.w3.org/2000/svg">
<path opacity="0.4" d="M8.00004 14.6666C11.6819 14.6666 14.6667 11.6819 14.6667 7.99998C14.6667 4.31808 11.6819 1.33331 8.00004 1.33331C4.31814 1.33331 1.33337 4.31808 1.33337 7.99998C1.33337 11.6819 4.31814 14.6666 8.00004 14.6666Z" fill="#026DE1"/>
<path d="M10.4733 10.62C10.3867 10.62 10.3 10.6 10.22 10.5467L8.15334 9.31332C7.64001 9.00665 7.26001 8.33332 7.26001 7.73999V5.00665C7.26001 4.73332 7.48668 4.50665 7.76001 4.50665C8.03334 4.50665 8.26001 4.73332 8.26001 5.00665V7.73999C8.26001 7.97999 8.46001 8.33332 8.66668 8.45332L10.7333 9.68665C10.9733 9.82665 11.0467 10.1333 10.9067 10.3733C10.8067 10.5333 10.64 10.62 10.4733 10.62Z" fill="#026DE1"/>
</svg>
